<svg width="16" height="16" viewBox="0 0 16 16" fill="none" xmlns="http://www.w3.org/2000/svg">
<g clip-path="url(#clip0_485_601)">
<path d="M8.00391 0C3.58556 0 0.00390625 3.58178 0.00390625 8C0.00390625 12.4185 3.58556 16 8.00391 16C12.4222 16 16.0039 12.4185 16.0039 8C16.0039 3.58178 12.4222 0 8.00391 0ZM8.00391 4C8.55622 4 9.00391 4.44775 9.00391 5C9.00391 5.5525 8.55622 6 8.00391 6C7.45159 6 7.00391 5.5525 7.00391 5C7.00391 4.44775 7.45159 4 8.00391 4ZM9.50391 12H6.50391C6.22778 12 6.00391 11.7764 6.00391 11.5C6.00391 11.2239 6.22778 11 6.50391 11H7.00391V8H6.50391C6.22778 8 6.00391 7.77637 6.00391 7.5C6.00391 7.22388 6.22778 7 6.50391 7H8.50391C8.78003 7 9.00391 7.22388 9.00391 7.5V11H9.50391C9.78003 11 10.0039 11.2239 10.0039 11.5C10.0039 11.7764 9.78003 12 9.50391 12Z" fill="#A5A5A5"/>
</g>
<defs>
<clipPath id="clip0_485_601">
<rect width="16" height="16" fill="white" transform="translate(0.00390625)"/>
</clipPath>
</defs>
</svg>
